<svg width="70" height="70" viewBox="0 0 70 70" fill="none" xmlns="http://www.w3.org/2000/svg">
<circle cx="35" cy="35" r="35" fill="#F5BC1E"/>
<path d="M13.25 32.5833L56.75 20.5V49.5L13.25 39.8333V32.5833Z" stroke="white" stroke-width="5" stroke-linecap="round" stroke-linejoin="round"/>
<path d="M34.0333 46.6C33.7794 47.5203 33.3468 48.3817 32.76 49.1348C32.1732 49.8879 31.4439 50.5181 30.6136 50.9894C29.7833 51.4606 28.8683 51.7637 27.9208 51.8814C26.9734 51.999 26.012 51.9289 25.0917 51.675C24.1713 51.4211 23.31 50.9884 22.5569 50.4017C21.8037 49.8149 21.1735 49.0855 20.7023 48.2552C20.231 47.4249 19.9279 46.5099 19.8103 45.5625C19.6926 44.615 19.7628 43.6537 20.0167 42.7333" stroke="white" stroke-width="5" stroke-linecap="round" stroke-linejoin="round"/>
</svg>
