<svg width="64" height="65" viewBox="0 0 64 65" fill="none" xmlns="http://www.w3.org/2000/svg">
<path d="M45.3334 5.83325H18.6667C11.3029 5.83325 5.33337 11.8028 5.33337 19.1666V45.8332C5.33337 53.197 11.3029 59.1666 18.6667 59.1666H45.3334C52.6972 59.1666 58.6667 53.197 58.6667 45.8332V19.1666C58.6667 11.8028 52.6972 5.83325 45.3334 5.83325Z" stroke="white" stroke-width="5" stroke-linecap="round" stroke-linejoin="round"/>
<path d="M42.6667 30.8201C42.9958 33.0394 42.6167 35.306 41.5834 37.2974C40.5501 39.2889 38.9151 40.9038 36.911 41.9125C34.907 42.9212 32.6359 43.2723 30.4208 42.9159C28.2057 42.5595 26.1594 41.5136 24.5729 39.9272C22.9865 38.3407 21.9407 36.2944 21.5842 34.0793C21.2278 31.8642 21.5789 29.5931 22.5876 27.5891C23.5963 25.585 25.2112 23.95 27.2027 22.9167C29.1941 21.8834 31.4607 21.5043 33.68 21.8334C35.9438 22.1691 38.0396 23.224 39.6579 24.8422C41.2761 26.4605 42.331 28.5563 42.6667 30.8201Z" stroke="white" stroke-width="5" stroke-linecap="round" stroke-linejoin="round"/>
<path d="M46.6666 17.8333H46.6929" stroke="white" stroke-width="5" stroke-linecap="round" stroke-linejoin="round"/>
</svg>
