<svg width="70" height="70" viewBox="0 0 70 70" fill="none" xmlns="http://www.w3.org/2000/svg">
<circle cx="35" cy="35" r="35" fill="#33803F"/>
<path d="M15.1437 26.4725C14.7971 24.911 14.8503 23.2872 15.2985 21.7518C15.7466 20.2163 16.5752 18.8189 17.7075 17.6891C18.8397 16.5592 20.2388 15.7336 21.7752 15.2886C23.3116 14.8436 24.9354 14.7938 26.4962 15.1437C27.3553 13.8002 28.5387 12.6945 29.9375 11.9287C31.3362 11.1628 32.9053 10.7614 34.5 10.7614C36.0947 10.7614 37.6637 11.1628 39.0625 11.9287C40.4612 12.6945 41.6447 13.8002 42.5037 15.1437C44.0669 14.7923 45.6935 14.8419 47.2323 15.2879C48.7712 15.734 50.1722 16.5619 51.3051 17.6949C52.438 18.8278 53.266 20.2288 53.712 21.7676C54.1581 23.3064 54.2077 24.9331 53.8562 26.4962C55.1998 27.3553 56.3054 28.5387 57.0713 29.9375C57.8372 31.3362 58.2386 32.9053 58.2386 34.5C58.2386 36.0947 57.8372 37.6637 57.0713 39.0625C56.3054 40.4612 55.1998 41.6447 53.8562 42.5037C54.2061 44.0645 54.1563 45.6884 53.7114 47.2247C53.2664 48.7611 52.4407 50.1603 51.3109 51.2925C50.181 52.4247 48.7836 53.2533 47.2482 53.7015C45.7127 54.1497 44.089 54.2029 42.5275 53.8562C41.6695 55.2049 40.4852 56.3153 39.084 57.0846C37.6829 57.8539 36.1103 58.2572 34.5118 58.2572C32.9134 58.2572 31.3408 57.8539 29.9397 57.0846C28.5385 56.3153 27.3542 55.2049 26.4962 53.8562C24.9354 54.2062 23.3116 54.1563 21.7752 53.7114C20.2388 53.2664 18.8397 52.4407 17.7075 51.3109C16.5752 50.1811 15.7466 48.7836 15.2985 47.2482C14.8503 45.7127 14.7971 44.089 15.1437 42.5275C13.7899 41.6707 12.6747 40.4854 11.902 39.0819C11.1292 37.6783 10.724 36.1022 10.724 34.5C10.724 32.8978 11.1292 31.3216 11.902 29.9181C12.6747 28.5146 13.7899 27.3293 15.1437 26.4725Z" stroke="white" stroke-width="5" stroke-linecap="round" stroke-linejoin="round"/>
<path d="M27.375 34.5L32.125 39.25L41.625 29.75" stroke="white" stroke-width="5" stroke-linecap="round" stroke-linejoin="round"/>
</svg>
